<?xml version="1.0" standalone="no"?>
<!DOCTYPE svg PUBLIC "-//W3C//DTD SVG 20010904//EN"
 "http://www.w3.org/TR/2001/REC-SVG-20010904/DTD/svg10.dtd">
<svg version="1.0" xmlns="http://www.w3.org/2000/svg"
 width="599.000000pt" height="599.000000pt" viewBox="0 0 599.000000 599.000000"
 preserveAspectRatio="xMidYMid meet">
<metadata>
Created by potrace 1.14, written by Peter Selinger 2001-2017
</metadata>
<g transform="translate(0.000000,599.000000) scale(0.100000,-0.100000)"
fill="#000000" stroke="none">
<path d="M2879 5906 c-211 -62 -349 -246 -349 -466 0 -126 50 -242 144 -335
191 -190 490 -189 680 3 92 93 135 202 136 343 0 133 -43 236 -140 335 -121
123 -302 169 -471 120z"/>
<path d="M2336 5242 c-183 -182 -283 -423 -284 -682 -1 -169 29 -289 107 -443
l47 -92 59 3 c131 7 352 85 439 154 104 83 145 150 236 388 35 91 66 168 70
172 3 4 37 -74 75 -175 81 -213 100 -249 167 -323 104 -113 275 -186 514 -219
40 -5 43 -4 64 30 55 89 113 236 126 319 3 21 8 48 10 60 6 28 6 225 0 252 -2
12 -7 39 -10 60 -26 164 -143 375 -282 508 -56 53 -74 61 -74 30 0 -9 -10 -39
-22 -67 -173 -410 -696 -514 -1003 -199 -60 62 -118 155 -141 226 -9 28 -19
54 -23 58 -4 5 -37 -22 -75 -60z"/>
<path d="M3000 4317 c0 -20 -78 -134 -123 -180 -23 -24 -61 -57 -84 -75 -86
-67 -285 -149 -405 -167 -73 -11 -67 -22 61 -116 110 -80 252 -141 391 -169
103 -20 290 -15 395 11 138 34 320 130 419 220 38 34 44 45 24 46 -25 2 -92
15 -112 23 -12 4 -23 7 -26 7 -16 -1 -126 41 -191 74 -133 66 -239 166 -305
286 -28 51 -44 66 -44 40z"/>
<path d="M1308 3925 c-1 -1 -19 -5 -38 -8 -190 -27 -365 -116 -514 -260 l-91
-88 45 -15 c138 -46 266 -144 339 -259 212 -335 60 -770 -317 -905 -62 -23
-62 -23 -45 -44 304 -359 827 -445 1226 -203 l48 29 -6 47 c-30 218 -99 384
-205 492 -76 77 -119 101 -353 189 -92 35 -164 67 -160 70 5 4 82 35 173 70
91 35 183 72 205 83 56 28 123 82 168 136 78 95 154 295 170 452 l6 55 -72 41
c-144 81 -299 121 -471 121 -57 1 -106 -1 -108 -3z"/>
<path d="M4405 3909 c-88 -18 -140 -37 -240 -87 -78 -39 -106 -62 -101 -80 3
-10 8 -37 11 -62 26 -196 112 -381 224 -482 62 -56 111 -81 329 -165 l173 -67
-53 -19 c-29 -10 -62 -23 -73 -28 -11 -5 -74 -29 -140 -55 -66 -25 -138 -56
-161 -69 -41 -24 -109 -86 -153 -139 -57 -70 -131 -271 -146 -398 -3 -23 -8
-50 -11 -59 -7 -24 14 -41 103 -87 327 -168 712 -135 1012 88 82 61 174 156
165 171 -3 5 -13 9 -22 9 -27 0 -152 63 -204 103 -238 182 -308 494 -172 764
69 138 225 270 359 304 25 6 45 15 45 19 0 16 -126 136 -191 182 -112 81 -270
145 -404 167 -95 14 -251 10 -350 -10z"/>
<path d="M2093 3638 c0 -32 -28 -141 -55 -218 -70 -199 -178 -332 -348 -429
-30 -17 -48 -31 -39 -31 31 0 165 -97 226 -164 82 -90 153 -232 192 -384 15
-62 30 -115 33 -118 8 -7 106 116 147 182 196 321 172 763 -57 1066 -45 60
-88 108 -95 108 -2 0 -4 -6 -4 -12z"/>
<path d="M3875 3596 c-99 -113 -175 -262 -211 -411 -20 -84 -26 -286 -12 -375
21 -127 79 -269 152 -378 43 -64 109 -142 119 -142 2 0 7 17 11 38 12 78 58
217 98 298 66 136 176 252 296 314 39 21 55 40 32 40 -6 0 -39 18 -74 40 -76
48 -177 154 -225 234 -44 74 -96 212 -119 317 l-18 82 -49 -57z"/>
<path d="M411 3434 c-358 -98 -477 -543 -216 -807 231 -232 629 -166 771 129
111 230 29 501 -191 630 -99 57 -255 78 -364 48z"/>
<path d="M5367 3435 c-164 -46 -289 -166 -338 -325 -26 -84 -25 -214 3 -295
66 -196 248 -327 453 -327 81 0 187 23 215 47 8 7 25 16 38 19 12 4 50 35 85
70 259 254 161 684 -182 799 -83 28 -199 33 -274 12z"/>
<path d="M2890 2333 c-52 -9 -196 -43 -215 -52 -126 -55 -262 -140 -318 -199
l-29 -30 44 -7 c65 -10 205 -53 276 -86 134 -60 270 -183 329 -295 15 -30 31
-54 34 -54 4 0 17 19 29 43 101 194 347 352 612 392 l47 7 -42 39 c-115 108
-297 199 -472 235 -37 7 -261 13 -295 7z"/>
<path d="M2212 1902 c-20 -16 -98 -162 -108 -200 -2 -9 -14 -51 -25 -92 -27
-97 -34 -303 -14 -407 27 -138 71 -242 152 -365 43 -66 174 -208 191 -208 5 0
15 19 22 42 32 109 107 220 198 294 51 41 155 99 197 109 11 2 40 9 65 16 59
14 173 14 246 -1 32 -6 97 -30 144 -52 109 -52 218 -158 272 -263 33 -66 53
-121 50 -137 -9 -39 106 65 179 162 91 121 167 305 184 450 24 192 -6 374 -90
545 -65 135 -56 128 -150 111 -211 -37 -353 -98 -451 -193 -88 -85 -95 -99
-230 -451 -15 -40 -31 -69 -35 -65 -4 4 -39 91 -79 193 -74 193 -96 234 -162
306 -94 102 -289 188 -477 210 -25 3 -48 7 -52 10 -4 2 -16 -4 -27 -14z"/>
<path d="M2922 963 c-246 -50 -410 -264 -389 -511 13 -151 85 -274 210 -361
84 -58 142 -72 282 -70 118 1 125 2 195 36 244 118 342 411 220 654 -95 189
-312 294 -518 252z"/>
</g>
</svg>
